<svg width="147" height="44" viewBox="0 0 147 44" fill="none" xmlns="http://www.w3.org/2000/svg">
<path d="M55.0195 29.7551L49.9936 16.0593C49.8051 15.5253 50.1977 14.9756 50.7632 14.9756H53.0248C53.9044 14.9756 54.6897 15.5253 54.9724 16.3577L59.2759 28.4829C59.2549 28.5038 59.2497 28.5248 59.2602 28.5457C59.2706 28.5667 59.3021 28.5771 59.3544 28.5771C59.3963 28.5771 59.4277 28.5667 59.4487 28.5457C59.4801 28.5248 59.4801 28.5038 59.4487 28.4829L63.7207 16.3577C64.0034 15.5253 64.7887 14.9756 65.684 14.9756H67.93C68.4954 14.9756 68.888 15.5253 68.6996 16.0593L63.6108 29.7551C63.2024 30.8231 62.6422 31.6294 61.9302 32.1738C61.2287 32.7079 60.3701 32.9749 59.3544 32.9749C58.3597 32.9749 57.4906 32.7079 56.7472 32.1738C56.0038 31.6294 55.4279 30.8231 55.0195 29.7551Z" fill="#0C0C0C"/>
<path fill-rule="evenodd" clip-rule="evenodd" d="M79.5526 32.9434C77.7516 32.9434 76.1444 32.5246 74.7308 31.687C73.3068 30.8493 72.1759 29.7342 71.3383 28.3415C70.5006 26.9385 70.0818 25.3888 70.0818 23.6925C70.0818 21.9858 70.5006 20.4413 71.3383 19.0592C72.1759 17.677 73.312 16.5724 74.7465 15.7452C76.181 14.918 77.783 14.5044 79.5526 14.5044C81.3536 14.5044 82.9608 14.918 84.3744 15.7452C85.7879 16.5724 86.9083 17.6823 87.7355 19.0749C88.5627 20.478 88.9763 22.0172 88.9763 23.6925C88.9763 25.3888 88.5627 26.9385 87.7355 28.3415C86.9083 29.7342 85.7827 30.8493 84.3587 31.687C82.9242 32.5246 81.3221 32.9434 79.5526 32.9434ZM79.5526 28.6243C80.495 28.6243 81.3274 28.4044 82.0499 27.9646C82.7724 27.5248 83.3482 26.9332 83.7775 26.1898C84.1964 25.4464 84.4058 24.6244 84.4058 23.7239C84.4058 22.8234 84.1964 22.0015 83.7775 21.258C83.3482 20.5146 82.7724 19.9178 82.0499 19.4676C81.3274 19.0173 80.495 18.7922 79.5526 18.7922C78.6312 18.7922 77.804 19.0173 77.071 19.4676C76.3381 19.9178 75.7569 20.5146 75.3276 21.258C74.9088 22.0015 74.6994 22.8234 74.6994 23.7239C74.6994 24.6244 74.9088 25.4464 75.3276 26.1898C75.7569 26.9332 76.3381 27.5248 77.071 27.9646C77.804 28.4044 78.6312 28.6243 79.5526 28.6243Z" fill="#0C0C0C"/>
<path fill-rule="evenodd" clip-rule="evenodd" d="M100.724 32.9434C98.9235 32.9434 97.3162 32.5246 95.9027 31.687C94.4787 30.8493 93.3478 29.7342 92.5102 28.3415C91.6725 26.9385 91.2537 25.3888 91.2537 23.6925C91.2537 21.9858 91.6725 20.4413 92.5102 19.0592C93.3478 17.677 94.4839 16.5724 95.9184 15.7452C97.3424 14.918 98.9444 14.5044 100.724 14.5044C102.515 14.5044 104.122 14.918 105.546 15.7452C106.96 16.5724 108.08 17.6823 108.907 19.0749C109.735 20.478 110.148 22.0172 110.148 23.6925C110.148 25.3888 109.735 26.9385 108.907 28.3415C108.08 29.7342 106.955 30.8493 105.531 31.687C104.096 32.5246 102.494 32.9434 100.724 32.9434ZM100.724 28.6243C101.667 28.6243 102.499 28.4044 103.222 27.9646C103.944 27.5248 104.515 26.9332 104.934 26.1898C105.363 25.4464 105.578 24.6244 105.578 23.7239C105.578 22.8234 105.363 22.0015 104.934 21.258C104.515 20.5146 103.944 19.9178 103.222 19.4676C102.499 19.0173 101.667 18.7922 100.724 18.7922C99.803 18.7922 98.9758 19.0173 98.2429 19.4676C97.5099 19.9178 96.9288 20.5146 96.4995 21.258C96.0702 22.0015 95.8556 22.8234 95.8556 23.7239C95.8556 24.6244 96.0702 25.4464 96.4995 26.1898C96.9288 26.9332 97.5099 27.5248 98.2429 27.9646C98.9758 28.4044 99.803 28.6243 100.724 28.6243Z" fill="#0C0C0C"/>
<path d="M119.069 32.9749C118.451 32.9749 117.844 32.8492 117.247 32.5979C116.661 32.3361 116.148 31.9383 115.708 31.4042C115.268 30.8702 114.954 30.2001 114.766 29.3938L111.577 15.8394C111.467 15.3839 111.797 14.9756 112.253 14.9756H114.122C115.017 14.9756 115.802 15.5881 116.007 16.4677L118.739 28.5457C118.771 28.619 118.802 28.6714 118.834 28.7028C118.865 28.7447 118.928 28.7656 119.022 28.7656C119.116 28.7656 119.179 28.7447 119.211 28.7028C119.232 28.6714 119.242 28.6295 119.242 28.5771L121.928 18.054C122.242 16.8708 122.739 15.986 123.42 15.3996C124.111 14.8028 124.975 14.5044 126.011 14.5044C127.048 14.5044 127.901 14.7923 128.571 15.3682C129.231 15.9546 129.713 16.8394 130.016 18.0226L132.686 28.5771C132.707 28.6504 132.728 28.708 132.749 28.7499C132.77 28.7813 132.828 28.797 132.922 28.797C133.016 28.797 133.084 28.7813 133.126 28.7499C133.158 28.708 133.173 28.64 133.173 28.5457L135.828 16.4834C136.016 15.6038 136.801 14.9756 137.712 14.9756H139.534C139.974 14.9756 140.32 15.3839 140.21 15.8237L137.147 29.3938C136.979 30.2001 136.676 30.8702 136.236 31.4042C135.807 31.9383 135.294 32.3361 134.697 32.5979C134.11 32.8492 133.508 32.9749 132.891 32.9749C131.896 32.9749 131.058 32.6817 130.378 32.0953C129.687 31.5089 129.189 30.6242 128.886 29.441L126.184 18.6508C126.184 18.6089 126.168 18.5618 126.137 18.5095C126.106 18.4676 126.053 18.4467 125.98 18.4467C125.886 18.4467 125.828 18.4676 125.807 18.5095C125.776 18.5618 125.76 18.6089 125.76 18.6508L123.074 29.441C122.76 30.6242 122.263 31.5089 121.582 32.0953C120.891 32.6817 120.053 32.9749 119.069 32.9749Z" fill="#0C0C0C"/>
<path d="M42.4702 13.0115C37.7898 20.5818 32.2612 29.4873 28.4446 35.6441C26.7326 38.4084 22.6962 38.4084 20.9685 35.6441C16.2985 28.1051 11.6286 20.5609 6.95861 13.0115C4.82257 9.57182 8.08945 5.31544 11.9846 6.49341C13.4138 6.91747 14.953 7.31013 16.5708 7.60855C18.7382 8.01691 20.3088 9.93306 20.3088 12.1476V18.9798C20.3088 21.3672 22.1622 23.3933 24.5495 23.4875C27.0625 23.566 29.12 21.5713 29.12 19.0741V12.1476C29.12 9.93306 30.6749 8.01691 32.858 7.60855C34.4758 7.31013 36.015 6.91748 37.4599 6.4777C41.3394 5.31545 44.6062 9.57182 42.4702 13.0115Z" fill="url(#paint0_linear_1977_1037)"/>
<defs>
<linearGradient id="paint0_linear_1977_1037" x1="45.5172" y1="2.56687" x2="36.2976" y2="46.3714" gradientUnits="userSpaceOnUse">
<stop offset="0.115" stop-color="#00C1FF"/>
<stop offset="1" stop-color="#0061FF"/>
</linearGradient>
</defs>
</svg>
