<svg width="25" height="24" viewBox="0 0 25 24" fill="none" xmlns="http://www.w3.org/2000/svg">
<mask id="mask0_1985_423" style="mask-type:alpha" maskUnits="userSpaceOnUse" x="0" y="0" width="25" height="24">
<rect x="0.200073" width="24" height="24" fill="#D9D9D9"/>
</mask>
<g mask="url(#mask0_1985_423)">
<path d="M12.2 11.6923C11.2347 11.6923 10.41 11.3503 9.72602 10.6664C9.04206 9.98239 8.70007 9.15773 8.70007 8.19236C8.70007 7.22698 9.04206 6.4023 9.72602 5.71833C10.41 5.03437 11.2347 4.69238 12.2 4.69238C13.1654 4.69238 13.9901 5.03437 14.6741 5.71833C15.358 6.4023 15.7 7.22698 15.7 8.19236C15.7 9.15773 15.358 9.98239 14.6741 10.6664C13.9901 11.3503 13.1654 11.6923 12.2 11.6923ZM6.21927 19.3077C5.79749 19.3077 5.43885 19.1599 5.14335 18.8644C4.84783 18.5689 4.70007 18.2103 4.70007 17.7885V17.0846C4.70007 16.5949 4.83309 16.1414 5.09912 15.7241C5.36514 15.3068 5.72058 14.986 6.16545 14.7616C7.15391 14.277 8.15103 13.9135 9.1568 13.6712C10.1626 13.4289 11.177 13.3078 12.2 13.3078C13.2231 13.3078 14.2375 13.4289 15.2433 13.6712C16.2491 13.9135 17.2462 14.277 18.2346 14.7616C18.6795 14.986 19.035 15.3068 19.301 15.7241C19.567 16.1414 19.7 16.5949 19.7 17.0846V17.7885C19.7 18.2103 19.5523 18.5689 19.2567 18.8644C18.9612 19.1599 18.6026 19.3077 18.1808 19.3077H6.21927Z" fill="#9CA3AF"/>
</g>
</svg>
