<svg width="10" height="11" viewBox="0 0 10 11" fill="none" xmlns="http://www.w3.org/2000/svg">
<path d="M8.08462 5.95949H0.5C0.358122 5.95949 0.239322 5.91163 0.1436 5.81591C0.0478666 5.72019 0 5.60139 0 5.45951C0 5.31763 0.0478666 5.19883 0.1436 5.10311C0.239322 5.00739 0.358122 4.95953 0.5 4.95953H8.08462L4.63845 1.51336C4.53931 1.41421 4.49038 1.29819 4.49167 1.16529C4.49294 1.03238 4.54529 0.91422 4.64872 0.810809C4.75213 0.714231 4.86922 0.664231 4.99998 0.660809C5.13075 0.657387 5.24784 0.707387 5.35125 0.810809L9.57817 5.03773C9.64055 5.10011 9.68457 5.16593 9.71022 5.23516C9.73586 5.30438 9.74868 5.37916 9.74868 5.45951C9.74868 5.53985 9.73586 5.61464 9.71022 5.68386C9.68457 5.75309 9.64055 5.8189 9.57817 5.88129L5.35125 10.1082C5.25895 10.2005 5.14464 10.2477 5.00832 10.2499C4.87199 10.252 4.75213 10.2048 4.64872 10.1082C4.54529 10.0048 4.49358 9.886 4.49358 9.75181C4.49358 9.61762 4.54529 9.49882 4.64872 9.39541L8.08462 5.95949Z" fill="#0181FF"/>
</svg>
