<svg width="25" height="24" viewBox="0 0 25 24" fill="none" xmlns="http://www.w3.org/2000/svg">
<mask id="mask0_1985_1894" style="mask-type:alpha" maskUnits="userSpaceOnUse" x="0" y="0" width="25" height="24">
<rect x="0.800049" width="24" height="24" fill="#D9D9D9"/>
</mask>
<g mask="url(#mask0_1985_1894)">
<path d="M5.30005 18.9999V10.1537C5.30005 9.86752 5.36407 9.59638 5.49212 9.34029C5.62017 9.08421 5.79717 8.87332 6.02312 8.70762L11.7154 4.41917C12.0313 4.17813 12.3923 4.05762 12.7985 4.05762C13.2046 4.05762 13.5667 4.17813 13.8846 4.41917L19.5769 8.70762C19.8029 8.87332 19.9799 9.08421 20.1079 9.34029C20.236 9.59638 20.3 9.86752 20.3 10.1537V18.9999C20.3 19.4089 20.1522 19.7611 19.8567 20.0566C19.5612 20.3521 19.209 20.4999 18.8 20.4999H15.6077C15.3516 20.4999 15.137 20.4132 14.9637 20.24C14.7905 20.0668 14.7039 19.8521 14.7039 19.596V14.7114C14.7039 14.4553 14.6172 14.2406 14.444 14.0674C14.2708 13.8942 14.0561 13.8076 13.8 13.8076H11.8C11.5439 13.8076 11.3293 13.8942 11.156 14.0674C10.9828 14.2406 10.8962 14.4553 10.8962 14.7114V19.596C10.8962 19.8521 10.8096 20.0668 10.6363 20.24C10.4631 20.4132 10.2484 20.4999 9.99235 20.4999H6.80002C6.39106 20.4999 6.03882 20.3521 5.74332 20.0566C5.44781 19.7611 5.30005 19.4089 5.30005 18.9999Z" fill="url(#paint0_linear_1985_1894)"/>
</g>
<defs>
<linearGradient id="paint0_linear_1985_1894" x1="12.8" y1="4.05762" x2="12.8" y2="20.4999" gradientUnits="userSpaceOnUse">
<stop stop-color="#00C1FF"/>
<stop offset="1" stop-color="#0061FF"/>
</linearGradient>
</defs>
</svg>
