<svg width="49" height="48" viewBox="0 0 49 48" fill="none" xmlns="http://www.w3.org/2000/svg">
<path d="M41 0H8C3.85786 0 0.5 3.35786 0.5 7.5V40.5C0.5 44.6421 3.85786 48 8 48H41C45.1421 48 48.5 44.6421 48.5 40.5V7.5C48.5 3.35786 45.1421 0 41 0Z" fill="#1877F2"/>
<path d="M36.5 24C36.5 17.4 31.1 12 24.5 12C17.9 12 12.5 17.4 12.5 24C12.5 30 16.85 34.95 22.55 35.85V27.45H19.55V24H22.55V21.3C22.55 18.3 24.35 16.65 27.05 16.65C28.4 16.65 29.75 16.95 29.75 16.95V19.95H28.25C26.75 19.95 26.3 20.85 26.3 21.75V24H29.6L29 27.45H26.15V36C32.15 35.1 36.5 30 36.5 24Z" fill="white"/>
</svg>
