<svg width="49" height="48" viewBox="0 0 49 48" fill="none" xmlns="http://www.w3.org/2000/svg">
<path d="M48.5 7.5C48.5 3.35786 45.1421 0 41 0H8C3.85786 0 0.5 3.35786 0.5 7.5V40.5C0.5 44.6421 3.85786 48 8 48H41C45.1421 48 48.5 44.6421 48.5 40.5V7.5Z" fill="#F9FAFB"/>
<path fill-rule="evenodd" clip-rule="evenodd" d="M36.2449 24.2728C36.2449 23.4219 36.1685 22.6037 36.0267 21.8182H24.7249V26.4601H31.183C30.9049 27.9601 30.0594 29.231 28.7885 30.0819V33.0928H32.6667C34.9358 31.0037 36.2449 27.9273 36.2449 24.2728Z" fill="#4285F4"/>
<path fill-rule="evenodd" clip-rule="evenodd" d="M24.7244 35.9999C27.9644 35.9999 30.6808 34.9254 32.6662 33.0926L28.788 30.0817C27.7135 30.8017 26.3389 31.2272 24.7244 31.2272C21.5989 31.2272 18.9535 29.1163 18.0098 26.2799H14.0007V29.389C15.9753 33.3108 20.0335 35.9999 24.7244 35.9999Z" fill="#34A853"/>
<path fill-rule="evenodd" clip-rule="evenodd" d="M18.0103 26.2799C17.7703 25.5599 17.634 24.7909 17.634 23.9999C17.634 23.209 17.7703 22.4399 18.0103 21.7199V18.6108H14.0012C13.1885 20.2308 12.7249 22.0636 12.7249 23.9999C12.7249 25.9363 13.1885 27.769 14.0012 29.389L18.0103 26.2799Z" fill="#FBBC05"/>
<path fill-rule="evenodd" clip-rule="evenodd" d="M24.7244 16.7727C26.4862 16.7727 28.068 17.3782 29.3117 18.5673L32.7535 15.1255C30.6753 13.1891 27.9589 12 24.7244 12C20.0335 12 15.9753 14.6891 14.0007 18.6109L18.0098 21.72C18.9535 18.8837 21.5989 16.7727 24.7244 16.7727Z" fill="#EA4335"/>
</svg>
