<svg width="25" height="24" viewBox="0 0 25 24" fill="none" xmlns="http://www.w3.org/2000/svg">
<mask id="mask0_1985_2280" style="mask-type:alpha" maskUnits="userSpaceOnUse" x="0" y="0" width="25" height="24">
<rect x="0.400024" width="24" height="24" fill="#D9D9D9"/>
</mask>
<g mask="url(#mask0_1985_2280)">
<path d="M8.75002 14.8654C9.00899 15.6077 9.38111 16.1974 9.86637 16.6346C10.3516 17.0718 10.9603 17.3756 11.6923 17.5461V18.125C11.6923 18.307 11.7606 18.4663 11.8971 18.6029C12.0337 18.7394 12.193 18.8077 12.375 18.8077C12.557 18.8077 12.7163 18.7394 12.8529 18.6029C12.9894 18.4663 13.0577 18.307 13.0577 18.125V17.5961C13.8333 17.491 14.5356 17.1996 15.1644 16.7221C15.7933 16.2445 16.1077 15.5205 16.1077 14.55C16.1077 13.85 15.9013 13.2308 15.4885 12.6923C15.0756 12.1538 14.2692 11.6679 13.0692 11.2346C12.0179 10.8756 11.3198 10.5647 10.975 10.3019C10.6301 10.0391 10.4577 9.67178 10.4577 9.19998C10.4577 8.72818 10.6343 8.34484 10.9875 8.04998C11.3407 7.75509 11.8282 7.60765 12.45 7.60765C12.9705 7.60765 13.3904 7.73041 13.7096 7.97593C14.0289 8.22144 14.2744 8.52945 14.4462 8.89995L15.6807 8.40383C15.4718 7.87178 15.1311 7.41633 14.6586 7.03748C14.1862 6.65864 13.6692 6.44743 13.1077 6.40383V5.87498C13.1077 5.69293 13.0394 5.53363 12.9029 5.3971C12.7663 5.26057 12.607 5.1923 12.425 5.1923C12.243 5.1923 12.0837 5.26057 11.9471 5.3971C11.8106 5.53363 11.7423 5.69293 11.7423 5.87498V6.40383C10.8898 6.56793 10.2349 6.91376 9.7779 7.44133C9.32085 7.96889 9.09232 8.55511 9.09232 9.19998C9.09232 9.95126 9.31989 10.5557 9.77502 11.0134C10.2301 11.4711 10.9718 11.8846 12 12.2538C13.0628 12.6436 13.7888 12.9932 14.1779 13.3029C14.567 13.6125 14.7615 14.0282 14.7615 14.55C14.7615 15.1769 14.5353 15.6324 14.0827 15.9163C13.6301 16.2003 13.1208 16.3423 12.5548 16.3423C11.9888 16.3423 11.4837 16.1731 11.0394 15.8346C10.5952 15.4962 10.2538 15.0013 10.0154 14.35L8.75002 14.8654ZM12.4017 21.5C11.0877 21.5 9.85271 21.2506 8.69657 20.752C7.54042 20.2533 6.53474 19.5765 5.67952 18.7217C4.82429 17.8669 4.14723 16.8616 3.64835 15.706C3.14947 14.5504 2.90002 13.3156 2.90002 12.0017C2.90002 10.6877 3.14936 9.45268 3.64802 8.29655C4.14669 7.1404 4.82344 6.13472 5.67827 5.2795C6.53312 4.42427 7.53837 3.74721 8.694 3.24833C9.84962 2.74944 11.0844 2.5 12.3983 2.5C13.7123 2.5 14.9473 2.74933 16.1034 3.248C17.2596 3.74667 18.2653 4.42342 19.1205 5.27825C19.9757 6.1331 20.6528 7.13834 21.1517 8.29398C21.6505 9.44959 21.9 10.6844 21.9 11.9983C21.9 13.3122 21.6506 14.5473 21.152 15.7034C20.6533 16.8596 19.9766 17.8652 19.1217 18.7205C18.2669 19.5757 17.2616 20.2527 16.106 20.7516C14.9504 21.2505 13.7156 21.5 12.4017 21.5Z" fill="#9CA3AF"/>
</g>
</svg>
