<svg width="24" height="24" viewBox="0 0 24 24" fill="none" xmlns="http://www.w3.org/2000/svg">
<path d="M22.1689 6.85329C19.4867 11.1822 16.3223 16.2888 14.1423 19.8111C13.1578 21.4022 10.8423 21.4022 9.85781 19.8111C7.18225 15.4911 4.5067 11.1733 1.83114 6.85329C0.606699 4.87551 2.48226 2.44662 4.70892 3.11551C5.53114 3.36218 6.4067 3.58218 7.33559 3.75551C8.58225 3.99107 9.47781 5.08662 9.47781 6.35551V10.2666C9.47781 11.6355 10.5423 12.8 11.9111 12.8466C13.3445 12.8977 14.5223 11.7488 14.5223 10.3266V6.35551C14.5223 5.08884 15.4178 3.99107 16.6623 3.75551C17.5956 3.57996 18.4756 3.35996 19.3 3.11107C21.5223 2.44218 23.3911 4.87773 22.1689 6.85329Z" fill="url(#paint0_linear_2194_2233)"/>
<defs>
<linearGradient id="paint0_linear_2194_2233" x1="23.9134" y1="0.866622" x2="18.6334" y2="25.96" gradientUnits="userSpaceOnUse">
<stop offset="0.115" stop-color="#00C1FF"/>
<stop offset="1" stop-color="#0061FF"/>
</linearGradient>
</defs>
</svg>
