<svg width="35" height="36" viewBox="0 0 35 36" fill="none" xmlns="http://www.w3.org/2000/svg">
<rect x="1.0001" y="1.19108" width="33.6" height="33.6" rx="16.8" stroke="#E6F2FF" stroke-width="0.8"/>
<path d="M25.9353 13.8737C23.7895 17.3369 21.258 21.4222 19.514 24.24C18.7264 25.5129 16.874 25.5129 16.0864 24.24C13.946 20.784 11.8055 17.3297 9.66506 13.8737C8.68551 12.2915 10.186 10.3484 11.9673 10.8835C12.6251 11.0809 13.3255 11.2569 14.0686 11.3955C15.066 11.584 15.7824 12.4604 15.7824 13.4755V16.6044C15.7824 17.6995 16.634 18.6311 17.7291 18.6684C18.8757 18.7093 19.818 17.7902 19.818 16.6524V13.4755C19.818 12.4622 20.5344 11.584 21.53 11.3955C22.2766 11.2551 22.9806 11.0791 23.6402 10.88C25.418 10.3449 26.9131 12.2933 25.9353 13.8737Z" fill="#F9FAFB"/>
</svg>
