<svg width="24" height="24" viewBox="0 0 24 24" fill="none" xmlns="http://www.w3.org/2000/svg">
<path d="M22.1689 6.85329C19.4867 11.1822 16.3222 16.2888 14.1422 19.8111C13.1578 21.4022 10.8422 21.4022 9.85778 19.8111C7.18222 15.4911 4.50667 11.1733 1.83111 6.85329C0.606665 4.87551 2.48222 2.44662 4.70889 3.11551C5.53111 3.36218 6.40667 3.58218 7.33555 3.75551C8.58222 3.99107 9.47778 5.08662 9.47778 6.35551V10.2666C9.47778 11.6355 10.5422 12.8 11.9111 12.8466C13.3444 12.8977 14.5222 11.7488 14.5222 10.3266V6.35551C14.5222 5.08884 15.4178 3.99107 16.6622 3.75551C17.5956 3.57996 18.4756 3.35996 19.3 3.11107C21.5222 2.44218 23.3911 4.87773 22.1689 6.85329Z" fill="#F9FAFB"/>
</svg>
