<svg width="40" height="34" viewBox="0 0 40 34" fill="none" xmlns="http://www.w3.org/2000/svg">
<path d="M38.6429 7.5644C33.7255 15.5007 27.9241 24.8629 23.9274 31.3203C22.1226 34.2374 17.8774 34.2374 16.0726 31.3203C11.1674 23.4003 6.2622 15.4844 1.35702 7.5644C-0.887799 3.93848 2.55072 -0.514485 6.63294 0.711811C8.14035 1.16403 9.74553 1.56737 11.4485 1.88514C13.7341 2.317 15.3759 4.32552 15.3759 6.65181V13.8222C15.3759 16.3318 17.3274 18.4666 19.837 18.5522C22.4648 18.6459 24.6241 16.5396 24.6241 13.9322V6.65181C24.6241 4.32959 26.2659 2.317 28.5474 1.88514C30.2585 1.56329 31.8718 1.15996 33.3833 0.703663C37.4574 -0.522633 40.8837 3.94255 38.6429 7.5644Z" fill="url(#paint0_linear_1354_2469)"/>
<defs>
<linearGradient id="paint0_linear_1354_2469" x1="41.8411" y1="-3.41115" x2="32.1611" y2="42.5933" gradientUnits="userSpaceOnUse">
<stop offset="0.115" stop-color="#00C1FF"/>
<stop offset="1" stop-color="#0061FF"/>
</linearGradient>
</defs>
</svg>
