<svg width="25" height="24" viewBox="0 0 25 24" fill="none" xmlns="http://www.w3.org/2000/svg">
<mask id="mask0_1985_2223" style="mask-type:alpha" maskUnits="userSpaceOnUse" x="0" y="0" width="25" height="24">
<rect x="0.600098" width="24" height="24" fill="#D9D9D9"/>
</mask>
<g mask="url(#mask0_1985_2223)">
<path d="M14.5423 8.86171C14.5423 8.75017 14.5821 8.63607 14.6616 8.51941C14.7411 8.40274 14.8314 8.32262 14.9327 8.27903C15.4289 8.0803 15.9395 7.92966 16.4645 7.82711C16.9895 7.72454 17.5347 7.67326 18.1 7.67326C18.427 7.67326 18.7433 7.69248 19.0491 7.73093C19.3548 7.7694 19.6629 7.82197 19.9731 7.88863C20.0911 7.91555 20.193 7.97965 20.2789 8.08093C20.3648 8.18222 20.4077 8.30017 20.4077 8.43478C20.4077 8.66042 20.3369 8.82547 20.1952 8.92996C20.0536 9.03444 19.8699 9.05976 19.6443 9.00591C19.4045 8.95591 19.1555 8.92001 18.8972 8.89823C18.6388 8.87643 18.3731 8.86553 18.1 8.86553C17.6154 8.86553 17.1407 8.91201 16.676 9.00496C16.2112 9.09791 15.768 9.22387 15.3462 9.38283C15.1103 9.47387 14.9173 9.46874 14.7673 9.36746C14.6173 9.26617 14.5423 9.09759 14.5423 8.86171ZM14.5423 14.3232C14.5423 14.2117 14.5821 14.096 14.6616 13.9761C14.7411 13.8563 14.8314 13.7745 14.9327 13.7309C15.4161 13.5322 15.9266 13.3832 16.4645 13.2838C17.0023 13.1845 17.5475 13.1348 18.1 13.1348C18.427 13.1348 18.7433 13.154 19.0491 13.1925C19.3548 13.2309 19.6629 13.2835 19.9731 13.3502C20.0911 13.3771 20.193 13.4412 20.2789 13.5425C20.3648 13.6437 20.4077 13.7617 20.4077 13.8963C20.4077 14.1219 20.3369 14.287 20.1952 14.3915C20.0536 14.496 19.8699 14.5213 19.6443 14.4675C19.4045 14.4175 19.1555 14.3816 18.8972 14.3598C18.6388 14.338 18.3731 14.3271 18.1 14.3271C17.6218 14.3271 17.152 14.3726 16.6904 14.4636C16.2289 14.5546 15.7872 14.6828 15.3654 14.8482C15.1295 14.9457 14.9334 14.9431 14.777 14.8405C14.6206 14.738 14.5423 14.5655 14.5423 14.3232ZM14.5423 11.5925C14.5423 11.4809 14.5821 11.3652 14.6616 11.2454C14.7411 11.1255 14.8314 11.0438 14.9327 11.0002C15.4289 10.8015 15.9395 10.6524 16.4645 10.5531C16.9895 10.4537 17.5347 10.404 18.1 10.404C18.427 10.404 18.7433 10.4232 19.0491 10.4617C19.3548 10.5002 19.6629 10.5527 19.9731 10.6194C20.0911 10.6463 20.193 10.7104 20.2789 10.8117C20.3648 10.913 20.4077 11.0309 20.4077 11.1655C20.4077 11.3912 20.3369 11.5562 20.1952 11.6607C20.0536 11.7652 19.8699 11.7905 19.6443 11.7367C19.4045 11.6867 19.1555 11.6508 18.8972 11.629C18.6388 11.6072 18.3731 11.5963 18.1 11.5963C17.6218 11.5963 17.152 11.6444 16.6904 11.7405C16.2289 11.8367 15.7872 11.9674 15.3654 12.1328C15.1295 12.2303 14.9334 12.2252 14.777 12.1175C14.6206 12.0098 14.5423 11.8348 14.5423 11.5925ZM13.35 17.1848C14.1218 16.7835 14.8994 16.4889 15.6827 16.3011C16.4661 16.1133 17.2718 16.0194 18.1 16.0194C18.7 16.0194 19.2635 16.063 19.7904 16.1502C20.3173 16.2373 20.818 16.3617 21.2923 16.5232C21.3693 16.5553 21.4398 16.5505 21.5039 16.5088C21.568 16.4671 21.6 16.4014 21.6 16.3117V6.85401C21.6 6.79632 21.584 6.74504 21.552 6.70016C21.5199 6.65527 21.4654 6.61681 21.3885 6.58476C20.8385 6.37066 20.3029 6.21649 19.7818 6.12226C19.2606 6.02804 18.7 5.98093 18.1 5.98093C17.2718 5.98093 16.4487 6.09536 15.6308 6.32421C14.8128 6.55306 14.0526 6.89632 13.35 7.35401V17.1848ZM12.6 18.9655C12.4052 18.9655 12.2228 18.9411 12.0529 18.8924C11.8831 18.8437 11.7225 18.779 11.5712 18.6982C10.8828 18.3085 10.1626 18.0145 9.41062 17.8165C8.65871 17.6184 7.88851 17.5194 7.10005 17.5194C6.4898 17.5194 5.89045 17.587 5.302 17.7222C4.71353 17.8575 4.14622 18.0565 3.60007 18.3193C3.24367 18.4834 2.90457 18.4575 2.58277 18.2415C2.26099 18.0254 2.1001 17.7193 2.1001 17.3232V6.46556C2.1001 6.25017 2.15554 6.04793 2.26642 5.85883C2.37732 5.66973 2.53726 5.53351 2.74625 5.45018C3.42316 5.1207 4.12861 4.87679 4.86257 4.71846C5.59654 4.56012 6.34236 4.48096 7.10005 4.48096C8.07313 4.48096 9.02377 4.61397 9.95197 4.88001C10.8802 5.14602 11.7629 5.53865 12.6 6.05788C13.4372 5.53865 14.3199 5.14602 15.2481 4.88001C16.1763 4.61397 17.127 4.48096 18.1 4.48096C18.8577 4.48096 19.6036 4.56012 20.3375 4.71846C21.0715 4.87679 21.7769 5.1207 22.4538 5.45018C22.6628 5.53351 22.8228 5.66973 22.9337 5.85883C23.0446 6.04793 23.1 6.25017 23.1 6.46556V17.3232C23.1 17.7193 22.9327 18.0222 22.5981 18.2318C22.2635 18.4415 21.9116 18.4642 21.5423 18.3001C21.0026 18.0437 20.4433 17.8495 19.8644 17.7174C19.2856 17.5854 18.6975 17.5194 18.1 17.5194C17.3116 17.5194 16.5414 17.6184 15.7895 17.8165C15.0375 18.0145 14.3173 18.3085 13.6289 18.6982C13.4776 18.779 13.317 18.8437 13.1471 18.8924C12.9773 18.9411 12.7949 18.9655 12.6 18.9655Z" fill="#9CA3AF"/>
</g>
</svg>
