<svg width="44" height="44" viewBox="0 0 44 44" fill="none" xmlns="http://www.w3.org/2000/svg">
<rect width="44" height="44" rx="4" fill="#FAE8FF"/>
<mask id="mask0_1308_23819" style="mask-type:alpha" maskUnits="userSpaceOnUse" x="10" y="10" width="24" height="24">
<rect x="10" y="10" width="24" height="24" fill="#D9D9D9"/>
</mask>
<g mask="url(#mask0_1308_23819)">
<path d="M13.5577 28.5C13.0606 28.5 12.635 28.3229 12.281 27.9689C11.927 27.6149 11.75 27.1894 11.75 26.6923V17.3077C11.75 16.8106 11.927 16.385 12.281 16.031C12.635 15.677 13.0606 15.5 13.5577 15.5H22.9423C23.4394 15.5 23.8649 15.677 24.2189 16.031C24.5729 16.385 24.7499 16.8106 24.7499 17.3077V26.6923C24.7499 27.1894 24.5729 27.6149 24.2189 27.9689C23.8649 28.3229 23.4394 28.5 22.9423 28.5H13.5577ZM27.6585 21C27.3977 21 27.181 20.9138 27.0086 20.7413C26.8361 20.5689 26.7499 20.3522 26.7499 20.0914V16.4086C26.7499 16.1477 26.8361 15.9311 27.0086 15.7587C27.181 15.5862 27.3977 15.5 27.6585 15.5H31.3413C31.6022 15.5 31.8188 15.5862 31.9912 15.7587C32.1637 15.9311 32.2499 16.1477 32.2499 16.4086V20.0914C32.2499 20.3522 32.1637 20.5689 31.9912 20.7413C31.8188 20.9138 31.6022 21 31.3413 21H27.6585ZM15.25 24.9519H21.25C21.4275 24.9519 21.5607 24.8699 21.6495 24.7058C21.7383 24.5417 21.7256 24.3827 21.6115 24.2288L19.9865 22.0538C19.8929 21.9333 19.7724 21.8731 19.625 21.8731C19.4775 21.8731 19.357 21.9333 19.2634 22.0538L17.75 24.0769L16.7365 22.7288C16.6429 22.6083 16.5224 22.5481 16.375 22.5481C16.2275 22.5481 16.107 22.6083 16.0134 22.7288L14.8884 24.2288C14.7743 24.3827 14.7617 24.5417 14.8505 24.7058C14.9392 24.8699 15.0724 24.9519 15.25 24.9519ZM27.6585 28.5C27.3977 28.5 27.181 28.4137 27.0086 28.2413C26.8361 28.0688 26.7499 27.8522 26.7499 27.5914V23.9086C26.7499 23.6477 26.8361 23.4311 27.0086 23.2586C27.181 23.0862 27.3977 23 27.6585 23H31.3413C31.6022 23 31.8188 23.0862 31.9912 23.2586C32.1637 23.4311 32.2499 23.6477 32.2499 23.9086V27.5914C32.2499 27.8522 32.1637 28.0688 31.9912 28.2413C31.8188 28.4137 31.6022 28.5 31.3413 28.5H27.6585Z" fill="#D946EF"/>
</g>
</svg>
