<svg width="44" height="44" viewBox="0 0 44 44" fill="none" xmlns="http://www.w3.org/2000/svg">
<rect width="44" height="44" rx="4" fill="#FCE7F3"/>
<mask id="mask0_1308_23704" style="mask-type:alpha" maskUnits="userSpaceOnUse" x="10" y="10" width="24" height="24">
<rect x="10" y="10" width="24" height="24" fill="#D9D9D9"/>
</mask>
<g mask="url(#mask0_1308_23704)">
<path d="M22.7499 27.1846C23.5217 26.7833 24.2993 26.4888 25.0826 26.3009C25.866 26.1131 26.6717 26.0192 27.4999 26.0192C28.0999 26.0192 28.6634 26.0628 29.1903 26.15C29.7172 26.2372 30.2179 26.3615 30.6922 26.523C30.7692 26.5551 30.8397 26.5503 30.9038 26.5086C30.9679 26.467 31 26.4012 31 26.3115V16.8538C31 16.7961 30.9839 16.7449 30.9519 16.7C30.9198 16.6551 30.8653 16.6166 30.7884 16.5846C30.2384 16.3705 29.7028 16.2163 29.1817 16.1221C28.6605 16.0279 28.0999 15.9807 27.4999 15.9807C26.6717 15.9807 25.8486 16.0952 25.0307 16.324C24.2127 16.5529 23.4525 16.8961 22.7499 17.3538V27.1846ZM21.9999 28.9653C21.8051 28.9653 21.6227 28.941 21.4529 28.8922C21.283 28.8435 21.1224 28.7788 20.9711 28.698C20.2827 28.3083 19.5625 28.0144 18.8105 27.8163C18.0586 27.6182 17.2884 27.5192 16.4999 27.5192C15.8897 27.5192 15.2904 27.5868 14.7019 27.722C14.1134 27.8573 13.5461 28.0563 13 28.3191C12.6436 28.4832 12.3045 28.4573 11.9827 28.2413C11.6609 28.0252 11.5 27.7191 11.5 27.323V16.4654C11.5 16.25 11.5554 16.0477 11.6663 15.8586C11.7772 15.6695 11.9372 15.5333 12.1462 15.45C12.8333 15.1308 13.5413 14.8894 14.2702 14.726C14.999 14.5625 15.7423 14.4808 16.4999 14.4808C17.473 14.4808 18.4237 14.6138 19.3519 14.8798C20.2801 15.1458 21.1628 15.5385 21.9999 16.0577C22.8371 15.5385 23.7198 15.1458 24.648 14.8798C25.5762 14.6138 26.5269 14.4808 27.4999 14.4808C28.2576 14.4808 29.0009 14.5625 29.7297 14.726C30.4586 14.8894 31.1666 15.1308 31.8538 15.45C32.0627 15.5333 32.2227 15.6695 32.3336 15.8586C32.4445 16.0477 32.4999 16.25 32.4999 16.4654V27.323C32.4999 27.7191 32.3326 28.022 31.998 28.2317C31.6634 28.4413 31.3115 28.464 30.9422 28.2999C30.4025 28.0435 29.8432 27.8493 29.2643 27.7172C28.6855 27.5852 28.0974 27.5192 27.4999 27.5192C26.7115 27.5192 25.9413 27.6182 25.1894 27.8163C24.4374 28.0144 23.7172 28.3083 23.0288 28.698C22.8775 28.7788 22.7169 28.8435 22.5471 28.8922C22.3772 28.941 22.1948 28.9653 21.9999 28.9653Z" fill="#EC4899"/>
</g>
</svg>
