<svg width="44" height="44" viewBox="0 0 44 44" fill="none" xmlns="http://www.w3.org/2000/svg">
<rect width="44" height="44" rx="4" fill="#DBEAFE"/>
<mask id="mask0_1308_23823" style="mask-type:alpha" maskUnits="userSpaceOnUse" x="10" y="10" width="24" height="24">
<rect x="10" y="10" width="24" height="24" fill="#D9D9D9"/>
</mask>
<g mask="url(#mask0_1308_23823)">
<path d="M18 26.75H23C23.2125 26.75 23.3906 26.6781 23.5344 26.5343C23.6781 26.3904 23.75 26.2122 23.75 25.9997C23.75 25.7871 23.6781 25.609 23.5344 25.4654C23.3906 25.3218 23.2125 25.25 23 25.25H18C17.7875 25.25 17.6094 25.3219 17.4656 25.4657C17.3219 25.6095 17.25 25.7877 17.25 26.0003C17.25 26.2129 17.3219 26.391 17.4656 26.5346C17.6094 26.6782 17.7875 26.75 18 26.75ZM18 22.75H26C26.2125 22.75 26.3906 22.6781 26.5344 22.5343C26.6781 22.3904 26.75 22.2122 26.75 21.9997C26.75 21.7871 26.6781 21.609 26.5344 21.4654C26.3906 21.3218 26.2125 21.25 26 21.25H18C17.7875 21.25 17.6094 21.3219 17.4656 21.4657C17.3219 21.6095 17.25 21.7877 17.25 22.0003C17.25 22.2129 17.3219 22.391 17.4656 22.5346C17.6094 22.6782 17.7875 22.75 18 22.75ZM18 18.75H26C26.2125 18.75 26.3906 18.6781 26.5344 18.5343C26.6781 18.3904 26.75 18.2122 26.75 17.9997C26.75 17.7871 26.6781 17.609 26.5344 17.4654C26.3906 17.3218 26.2125 17.25 26 17.25H18C17.7875 17.25 17.6094 17.3219 17.4656 17.4657C17.3219 17.6095 17.25 17.7877 17.25 18.0003C17.25 18.2129 17.3219 18.391 17.4656 18.5346C17.6094 18.6782 17.7875 18.75 18 18.75ZM15.3077 30.5C14.8026 30.5 14.375 30.325 14.025 29.975C13.675 29.625 13.5 29.1974 13.5 28.6923V15.3077C13.5 14.8026 13.675 14.375 14.025 14.025C14.375 13.675 14.8026 13.5 15.3077 13.5H28.6923C29.1974 13.5 29.625 13.675 29.975 14.025C30.325 14.375 30.5 14.8026 30.5 15.3077V28.6923C30.5 29.1974 30.325 29.625 29.975 29.975C29.625 30.325 29.1974 30.5 28.6923 30.5H15.3077Z" fill="#3B82F6"/>
</g>
</svg>
