<svg width="44" height="44" viewBox="0 0 44 44" fill="none" xmlns="http://www.w3.org/2000/svg">
<rect width="44" height="44" rx="4" fill="#E0F2FE"/>
<mask id="mask0_1308_23829" style="mask-type:alpha" maskUnits="userSpaceOnUse" x="10" y="10" width="24" height="24">
<rect x="10" y="10" width="24" height="24" fill="#D9D9D9"/>
</mask>
<g mask="url(#mask0_1308_23829)">
<path d="M16.5 29.5C15.1179 29.5 13.9391 29.0198 12.9635 28.0596C11.9878 27.0993 11.5 25.9282 11.5 24.5461C11.5 23.3231 11.8917 22.2352 12.675 21.2827C13.4583 20.3301 14.4577 19.7667 15.6731 19.5923C15.9936 18.0974 16.7452 16.875 17.9279 15.925C19.1106 14.975 20.4679 14.5 22 14.5C23.8089 14.5 25.3445 15.1311 26.6067 16.3933C27.8689 17.6554 28.5 19.191 28.5 21V21.5H28.8077C29.8615 21.5821 30.7403 22.0058 31.4442 22.7712C32.148 23.5365 32.5 24.4461 32.5 25.5C32.5 26.6153 32.1121 27.5609 31.3365 28.3365C30.5609 29.1121 29.6153 29.5 28.5 29.5H22.75V22.2153L24.0827 23.5327C24.2211 23.6711 24.3926 23.7404 24.5971 23.7404C24.8016 23.7404 24.9782 23.666 25.1269 23.5173C25.2718 23.3788 25.3426 23.2032 25.3394 22.9904C25.3362 22.7775 25.2653 22.6019 25.1269 22.4635L22.6327 19.9692C22.4519 19.7885 22.241 19.6981 22 19.6981C21.759 19.6981 21.5481 19.7885 21.3673 19.9692L18.8731 22.4635C18.7346 22.6019 18.6612 22.775 18.6529 22.9827C18.6445 23.1904 18.7179 23.3686 18.8731 23.5173C19.0115 23.6557 19.1846 23.7259 19.3923 23.7279C19.6 23.7298 19.7782 23.6615 19.9269 23.523L21.25 22.2153V29.5H16.5Z" fill="#0EA5E9"/>
</g>
</svg>
