<svg width="44" height="44" viewBox="0 0 44 44" fill="none" xmlns="http://www.w3.org/2000/svg">
<rect width="44" height="44" rx="4" fill="#CFFAFE"/>
<mask id="mask0_1308_23825" style="mask-type:alpha" maskUnits="userSpaceOnUse" x="10" y="10" width="24" height="24">
<rect x="10" y="10" width="24" height="24" fill="#D9D9D9"/>
</mask>
<g mask="url(#mask0_1308_23825)">
<path d="M24.577 32.423C24.1924 32.423 23.8655 32.2884 23.5963 32.0192C23.3271 31.7499 23.1924 31.423 23.1924 31.0384V24.5769C23.1924 24.1923 23.3271 23.8654 23.5963 23.5962C23.8655 23.3269 24.1924 23.1923 24.577 23.1923H31.0385C31.4232 23.1923 31.7501 23.3269 32.0193 23.5962C32.2885 23.8654 32.4231 24.1923 32.4231 24.5769V31.0384C32.4231 31.423 32.2885 31.7499 32.0193 32.0192C31.7501 32.2884 31.4232 32.423 31.0385 32.423H24.577ZM24.577 31.0384H31.0385V30.2961C30.6539 29.8179 30.1841 29.4375 29.6289 29.1548C29.0738 28.8721 28.4668 28.7307 27.8078 28.7307C27.1488 28.7307 26.5418 28.8721 25.9866 29.1548C25.4315 29.4375 24.9617 29.8179 24.577 30.2961V31.0384ZM27.8078 27.8077C28.1924 27.8077 28.5193 27.673 28.7886 27.4038C29.0578 27.1346 29.1924 26.8077 29.1924 26.4231C29.1924 26.0384 29.0578 25.7115 28.7886 25.4423C28.5193 25.1731 28.1924 25.0385 27.8078 25.0385C27.4232 25.0385 27.0963 25.1731 26.827 25.4423C26.5578 25.7115 26.4232 26.0384 26.4232 26.4231C26.4232 26.8077 26.5578 27.1346 26.827 27.4038C27.0963 27.673 27.4232 27.8077 27.8078 27.8077ZM21.0001 31.5H20.4617C20.2373 31.5 20.0463 31.4278 19.8886 31.2836C19.7309 31.1394 19.6354 30.9551 19.6021 30.7307L19.3117 28.4538C19.0437 28.3641 18.7691 28.2384 18.4876 28.0769C18.2062 27.9153 17.9546 27.7422 17.7328 27.5576L15.6444 28.4384C15.4303 28.532 15.2178 28.5429 15.0069 28.4711C14.796 28.3993 14.6303 28.2647 14.5097 28.0673L13.0059 25.4481C12.8918 25.2506 12.8566 25.0397 12.9002 24.8154C12.9438 24.591 13.0559 24.4102 13.2367 24.2731L15.0444 22.9058C15.0213 22.757 15.005 22.6077 14.9953 22.4577C14.9857 22.3077 14.9809 22.1583 14.9809 22.0096C14.9809 21.8673 14.9857 21.7227 14.9953 21.5759C15.005 21.4291 15.0213 21.2686 15.0444 21.0942L13.2367 19.7269C13.0559 19.5897 12.9422 19.4089 12.8954 19.1846C12.8486 18.9602 12.8854 18.7493 13.0059 18.5519L14.5097 15.952C14.6303 15.7545 14.7944 15.6199 15.0021 15.5481C15.2098 15.4763 15.4206 15.4872 15.6347 15.5808L17.7232 16.452C17.9642 16.2609 18.2216 16.0862 18.4953 15.9279C18.7691 15.7696 19.038 15.6423 19.3021 15.5462L19.6021 13.2885C19.6354 13.0641 19.7341 12.8766 19.8982 12.726C20.0623 12.5753 20.2566 12.5 20.4809 12.5H23.5097C23.7341 12.5 23.9299 12.5753 24.0972 12.726C24.2645 12.8766 24.3648 13.0641 24.3982 13.2885L24.6885 15.5558C24.9885 15.6647 25.26 15.792 25.503 15.9375C25.7459 16.083 25.9911 16.2545 26.2386 16.452L28.3655 15.5808C28.5796 15.4872 28.7905 15.4747 28.9982 15.5433C29.2059 15.6119 29.37 15.7449 29.4905 15.9423L30.9943 18.5673C31.1148 18.7647 31.1517 18.973 31.1049 19.1923C31.0581 19.4115 30.9443 19.5897 30.7635 19.7269L29.1943 20.9231C29.1943 20.9359 29.1959 20.9487 29.1991 20.9615C29.2023 20.9743 29.2039 20.9872 29.2039 21H24.8231C24.609 20.4243 24.2517 19.9471 23.751 19.5683C23.2504 19.1894 22.6706 19 22.0116 19C21.1796 19 20.4716 19.292 19.8876 19.876C19.3037 20.4599 19.0117 21.1679 19.0117 22C19.0117 22.6653 19.1934 23.25 19.5569 23.7538C19.9203 24.2576 20.4014 24.6166 21.0001 24.8307V31.5Z" fill="#06B6D4"/>
</g>
</svg>
