<svg width="44" height="44" viewBox="0 0 44 44" fill="none" xmlns="http://www.w3.org/2000/svg">
<rect width="44" height="44" rx="4" fill="#EDE9FE"/>
<mask id="mask0_1308_23821" style="mask-type:alpha" maskUnits="userSpaceOnUse" x="10" y="10" width="24" height="24">
<rect x="10" y="10" width="24" height="24" fill="#D9D9D9"/>
</mask>
<g mask="url(#mask0_1308_23821)">
<path d="M14.6058 30.5403C14.2443 30.6672 13.9263 30.5935 13.652 30.3192C13.3776 30.0448 13.3039 29.7269 13.4308 29.3653L16.2135 21.5904C16.4378 20.9609 16.8747 20.575 17.524 20.4327C18.1734 20.2904 18.7308 20.4519 19.1961 20.9173L23.0538 24.775C23.5192 25.2404 23.6807 25.7977 23.5384 26.4471C23.3961 27.0964 23.0102 27.5333 22.3807 27.7577L14.6058 30.5403ZM23.5634 22.2846C23.4391 22.1603 23.3769 22.0205 23.3769 21.8654C23.3769 21.7103 23.4391 21.5705 23.5634 21.4462L28.6288 16.3808C29.1301 15.8795 29.7365 15.6289 30.448 15.6289C31.1596 15.6289 31.766 15.8795 32.2672 16.3808L32.3576 16.4712C32.4653 16.5789 32.5208 16.7103 32.524 16.8654C32.5272 17.0205 32.4666 17.1603 32.3422 17.2846C32.2243 17.409 32.0878 17.4712 31.9326 17.4712C31.7775 17.4712 31.6378 17.409 31.5134 17.2846L31.448 17.2192C31.1762 16.9474 30.8461 16.8115 30.4576 16.8115C30.0692 16.8115 29.739 16.9474 29.4672 17.2192L24.3769 22.3096C24.2692 22.4173 24.1378 22.4712 23.9826 22.4712C23.8275 22.4712 23.6878 22.409 23.5634 22.2846ZM19.9096 18.6308C19.7852 18.5064 19.7231 18.3667 19.7231 18.2116C19.7231 18.0564 19.7852 17.9167 19.9096 17.7924L20.0904 17.6116C20.3878 17.3141 20.5365 16.9539 20.5365 16.5308C20.5365 16.1077 20.3878 15.7474 20.0904 15.45L19.8538 15.2135C19.7461 15.1058 19.6923 14.9744 19.6923 14.8192C19.6923 14.6641 19.7545 14.5244 19.8788 14.4C20.0032 14.2757 20.1429 14.2135 20.298 14.2135C20.4532 14.2135 20.5929 14.2757 20.7173 14.4L20.9288 14.6116C21.4622 15.1449 21.7288 15.7846 21.7288 16.5308C21.7288 17.2769 21.4622 17.9167 20.9288 18.45L20.723 18.6558C20.6154 18.7635 20.484 18.8173 20.3288 18.8173C20.1737 18.8173 20.034 18.7552 19.9096 18.6308ZM21.7365 20.4577C21.6122 20.3334 21.55 20.1936 21.55 20.0385C21.55 19.8834 21.6122 19.7436 21.7365 19.6193L24.8019 16.5539C25.0737 16.2821 25.2096 15.9519 25.2096 15.5635C25.2096 15.175 25.0737 14.8449 24.8019 14.5731L23.7115 13.4827C23.6038 13.375 23.55 13.2436 23.55 13.0885C23.55 12.9334 23.6122 12.7936 23.7365 12.6693C23.8609 12.5449 24.0006 12.4827 24.1557 12.4827C24.3109 12.4827 24.4506 12.5449 24.575 12.6693L25.6403 13.7346C26.148 14.2423 26.4019 14.8519 26.4019 15.5635C26.4019 16.275 26.148 16.8846 25.6403 17.3923L22.55 20.4827C22.4423 20.5904 22.3109 20.6442 22.1557 20.6442C22.0006 20.6442 21.8609 20.5821 21.7365 20.4577ZM25.3903 24.1115C25.266 23.9872 25.2038 23.8474 25.2038 23.6923C25.2038 23.5372 25.266 23.3974 25.3903 23.2731L26.1672 22.4962C26.707 21.9564 27.3583 21.6866 28.1211 21.6866C28.8839 21.6866 29.5352 21.9564 30.0749 22.4962L30.8768 23.2981C30.9845 23.4058 31.0384 23.5372 31.0384 23.6923C31.0384 23.8474 30.9762 23.9872 30.8518 24.1115C30.7275 24.2359 30.5877 24.2981 30.4326 24.2981C30.2775 24.2981 30.1377 24.2359 30.0134 24.1115L29.2365 23.3346C28.9326 23.0308 28.5608 22.8789 28.1211 22.8789C27.6813 22.8789 27.3095 23.0308 27.0057 23.3346L26.2038 24.1365C26.0961 24.2442 25.9647 24.2981 25.8095 24.2981C25.6544 24.2981 25.5147 24.2359 25.3903 24.1115Z" fill="#8B5CF6"/>
</g>
</svg>
