<svg width="44" height="44" viewBox="0 0 44 44" fill="none" xmlns="http://www.w3.org/2000/svg">
<rect width="44" height="44" rx="4" fill="#ECFDF5"/>
<mask id="mask0_1308_23835" style="mask-type:alpha" maskUnits="userSpaceOnUse" x="10" y="10" width="24" height="24">
<rect x="10" y="10" width="24" height="24" fill="#D9D9D9"/>
</mask>
<g mask="url(#mask0_1308_23835)">
<path d="M22.0003 26.75C22.2129 26.75 22.391 26.6781 22.5346 26.5343C22.6782 26.3906 22.75 26.2125 22.75 26V21.75C22.75 21.5375 22.6781 21.3594 22.5343 21.2156C22.3904 21.0719 22.2122 21 21.9997 21C21.7871 21 21.609 21.0719 21.4654 21.2156C21.3218 21.3594 21.25 21.5375 21.25 21.75V26C21.25 26.2125 21.3219 26.3906 21.4657 26.5343C21.6095 26.6781 21.7877 26.75 22.0003 26.75ZM22 19.2885C22.2288 19.2885 22.4207 19.2111 22.5755 19.0563C22.7303 18.9015 22.8077 18.7096 22.8077 18.4808C22.8077 18.2519 22.7303 18.0601 22.5755 17.9053C22.4207 17.7505 22.2288 17.6731 22 17.6731C21.7711 17.6731 21.5793 17.7505 21.4245 17.9053C21.2697 18.0601 21.1923 18.2519 21.1923 18.4808C21.1923 18.7096 21.2697 18.9015 21.4245 19.0563C21.5793 19.2111 21.7711 19.2885 22 19.2885ZM22.0016 31.5C20.6877 31.5 19.4527 31.2506 18.2966 30.752C17.1404 30.2533 16.1347 29.5765 15.2795 28.7217C14.4243 27.8669 13.7472 26.8616 13.2483 25.706C12.7494 24.5504 12.5 23.3156 12.5 22.0017C12.5 20.6877 12.7493 19.4527 13.248 18.2966C13.7467 17.1404 14.4234 16.1347 15.2783 15.2795C16.1331 14.4243 17.1383 13.7472 18.294 13.2483C19.4496 12.7494 20.6844 12.5 21.9983 12.5C23.3122 12.5 24.5473 12.7493 25.7034 13.248C26.8596 13.7467 27.8652 14.4234 28.7205 15.2783C29.5757 16.1331 30.2527 17.1383 30.7516 18.294C31.2505 19.4496 31.5 20.6844 31.5 21.9983C31.5 23.3122 31.2506 24.5473 30.752 25.7034C30.2533 26.8596 29.5765 27.8652 28.7217 28.7205C27.8669 29.5757 26.8616 30.2527 25.706 30.7516C24.5504 31.2505 23.3156 31.5 22.0016 31.5Z" fill="#10B981"/>
</g>
</svg>
