<svg width="44" height="44" viewBox="0 0 44 44" fill="none" xmlns="http://www.w3.org/2000/svg">
<rect width="44" height="44" rx="4" fill="#E0E7FF"/>
<mask id="mask0_1308_23827" style="mask-type:alpha" maskUnits="userSpaceOnUse" x="10" y="10" width="24" height="24">
<rect x="10" y="10" width="24" height="24" fill="#D9D9D9"/>
</mask>
<g mask="url(#mask0_1308_23827)">
<path d="M22.9999 30.5192V28.6153H24.9038V30.5192H22.9999ZM21.0961 28.6153V23.9038H22.9999V28.6153H21.0961ZM28.6153 25.423V22H30.5191V25.423H28.6153ZM26.7114 22V20.0961H28.6153V22H26.7114ZM15.3846 23.9038V22H17.2884V23.9038H15.3846ZM13.4807 22V20.0961H15.3846V22H13.4807ZM21.9999 15.3846V13.4808H23.9038V15.3846H21.9999ZM14.673 18H17.9999V14.6731H14.673V18ZM14.3846 19.1923C14.1285 19.1923 13.9138 19.1057 13.7406 18.9324C13.5673 18.7592 13.4807 18.5445 13.4807 18.2884V14.3846C13.4807 14.1285 13.5673 13.9139 13.7406 13.7406C13.9138 13.5674 14.1285 13.4808 14.3846 13.4808H18.2884C18.5445 13.4808 18.7592 13.5674 18.9324 13.7406C19.1056 13.9139 19.1922 14.1285 19.1922 14.3846V18.2884C19.1922 18.5445 19.1056 18.7592 18.9324 18.9324C18.7592 19.1057 18.5445 19.1923 18.2884 19.1923H14.3846ZM14.673 29.3269H18.0769V25.9999H14.673V29.3269ZM14.3846 30.5192C14.1285 30.5192 13.9138 30.4326 13.7406 30.2593C13.5673 30.0861 13.4807 29.8714 13.4807 29.6153V25.7115C13.4807 25.4554 13.5673 25.2407 13.7406 25.0675C13.9138 24.8943 14.1285 24.8076 14.3846 24.8076H18.3653C18.6214 24.8076 18.8361 24.8943 19.0093 25.0675C19.1825 25.2407 19.2692 25.4554 19.2692 25.7115V29.6153C19.2692 29.8714 19.1825 30.0861 19.0093 30.2593C18.8361 30.4326 18.6214 30.5192 18.3653 30.5192H14.3846ZM25.9999 18H29.3268V14.6731H25.9999V18ZM25.7114 19.1923C25.4553 19.1923 25.2407 19.1057 25.0674 18.9324C24.8942 18.7592 24.8076 18.5445 24.8076 18.2884V14.3846C24.8076 14.1285 24.8942 13.9139 25.0674 13.7406C25.2407 13.5674 25.4553 13.4808 25.7114 13.4808H29.6153C29.8713 13.4808 30.086 13.5674 30.2593 13.7406C30.4325 13.9139 30.5191 14.1285 30.5191 14.3846V18.2884C30.5191 18.5445 30.4325 18.7592 30.2593 18.9324C30.086 19.1057 29.8713 19.1923 29.6153 19.1923H25.7114ZM26.7114 30.5192V27.3268H24.8076V25.423H28.6153V28.6153H30.5191V30.5192H26.7114ZM22.9999 23.9038V22H26.7114V23.9038H22.9999ZM19.1922 23.9038V22H17.2884V20.0961H22.9999V22H21.0961V23.9038H19.1922ZM20.0961 19.1923V15.3846H21.9999V17.2884H23.9038V19.1923H20.0961ZM15.6442 17.0288V15.6442H17.0288V17.0288H15.6442ZM15.7115 28.2884V26.9038H17.0961V28.2884H15.7115ZM26.971 17.0288V15.6442H28.3557V17.0288H26.971Z" fill="#6366F1"/>
</g>
</svg>
