<svg width="44" height="44" viewBox="0 0 44 44" fill="none" xmlns="http://www.w3.org/2000/svg">
<rect width="44" height="44" rx="4" fill="#DCFCE7"/>
<mask id="mask0_1308_23831" style="mask-type:alpha" maskUnits="userSpaceOnUse" x="10" y="10" width="24" height="24">
<rect x="10" y="10" width="24" height="24" fill="#D9D9D9"/>
</mask>
<g mask="url(#mask0_1308_23831)">
<path d="M14 26.7884V28.6923C14 28.7692 14.032 28.8397 14.0961 28.9038C14.1602 28.9679 14.2308 29 14.3077 29H29.6923C29.7692 29 29.8397 28.9679 29.9038 28.9038C29.9679 28.8397 30 28.7692 30 28.6923V26.7884H14ZM14.3077 16.5193H17.075C16.9917 16.3693 16.9295 16.2109 16.8885 16.0443C16.8475 15.8776 16.827 15.7026 16.827 15.5193C16.827 14.8205 17.0689 14.2292 17.5529 13.7452C18.0369 13.2613 18.6282 13.0193 19.3269 13.0193C19.7461 13.0193 20.1339 13.1282 20.4903 13.3461C20.8466 13.5639 21.1575 13.8345 21.4231 14.1577L21.9808 14.9039L22.5385 14.1577C22.7936 13.8218 23.1024 13.5481 23.4651 13.3366C23.8277 13.1251 24.2182 13.0193 24.6366 13.0193C25.334 13.0193 25.9246 13.2613 26.4086 13.7452C26.8925 14.2292 27.1345 14.8205 27.1345 15.5193C27.1345 15.7026 27.1156 15.8776 27.0778 16.0443C27.04 16.2109 26.9762 16.3693 26.8865 16.5193H29.6923C30.1974 16.5193 30.625 16.6943 30.975 17.0443C31.325 17.3942 31.5 17.8218 31.5 18.3269V28.6923C31.5 29.1974 31.325 29.625 30.975 29.975C30.625 30.325 30.1974 30.5 29.6923 30.5H14.3077C13.8026 30.5 13.375 30.325 13.025 29.975C12.675 29.625 12.5 29.1974 12.5 28.6923V18.3269C12.5 17.8218 12.675 17.3942 13.025 17.0443C13.375 16.6943 13.8026 16.5193 14.3077 16.5193ZM14 24.2115H30V18.3269C30 18.25 29.9679 18.1795 29.9038 18.1154C29.8397 18.0513 29.7692 18.0192 29.6923 18.0192H24.2269L25.823 20.2135C25.9448 20.3891 25.9938 20.574 25.9701 20.7683C25.9464 20.9625 25.8467 21.1205 25.6711 21.2423C25.4955 21.3641 25.3105 21.4105 25.1163 21.3817C24.9221 21.3529 24.7641 21.2557 24.6423 21.0904L21.9808 17.4769L19.3192 21.0904C19.1974 21.2557 19.0394 21.3529 18.8452 21.3817C18.651 21.4105 18.466 21.3641 18.2904 21.2423C18.1148 21.1205 18.0125 20.9625 17.9837 20.7683C17.9548 20.574 18.0013 20.3891 18.1231 20.2135L19.7039 18.0192H14.3077C14.2308 18.0192 14.1602 18.0513 14.0961 18.1154C14.032 18.1795 14 18.25 14 18.3269V24.2115ZM19.3269 16.5193C19.6103 16.5193 19.8478 16.4234 20.0394 16.2318C20.2311 16.0401 20.3269 15.8026 20.3269 15.5193C20.3269 15.2359 20.2311 14.9984 20.0394 14.8068C19.8478 14.6151 19.6103 14.5193 19.3269 14.5193C19.0436 14.5193 18.8061 14.6151 18.6144 14.8068C18.4228 14.9984 18.3269 15.2359 18.3269 15.5193C18.3269 15.8026 18.4228 16.0401 18.6144 16.2318C18.8061 16.4234 19.0436 16.5193 19.3269 16.5193ZM24.6346 16.5193C24.9179 16.5193 25.1554 16.4234 25.3471 16.2318C25.5387 16.0401 25.6346 15.8026 25.6346 15.5193C25.6346 15.2359 25.5387 14.9984 25.3471 14.8068C25.1554 14.6151 24.9179 14.5193 24.6346 14.5193C24.3512 14.5193 24.1137 14.6151 23.9221 14.8068C23.7304 14.9984 23.6346 15.2359 23.6346 15.5193C23.6346 15.8026 23.7304 16.0401 23.9221 16.2318C24.1137 16.4234 24.3512 16.5193 24.6346 16.5193Z" fill="#22C55E"/>
</g>
</svg>
