<svg width="44" height="44" viewBox="0 0 44 44" fill="none" xmlns="http://www.w3.org/2000/svg">
<rect width="44" height="44" rx="4" fill="#F0FDFA"/>
<mask id="mask0_1308_23833" style="mask-type:alpha" maskUnits="userSpaceOnUse" x="10" y="10" width="24" height="24">
<rect x="10" y="10" width="24" height="24" fill="#D9D9D9"/>
</mask>
<g mask="url(#mask0_1308_23833)">
<path d="M13.7308 29.5C13.3846 29.5 13.093 29.3814 12.8558 29.1442C12.6186 28.907 12.5 28.6153 12.5 28.2692C12.5 27.923 12.6186 27.6314 12.8558 27.3942C13.093 27.157 13.3846 27.0385 13.7308 27.0385C14.0769 27.0385 14.3686 27.157 14.6058 27.3942C14.8429 27.6314 14.9615 27.923 14.9615 28.2692C14.9615 28.6153 14.8429 28.907 14.6058 29.1442C14.3686 29.3814 14.0769 29.5 13.7308 29.5ZM17.9038 29.5C17.7013 29.5 17.5256 29.4368 17.3769 29.3105C17.2282 29.1842 17.1352 29.0198 17.0981 28.8173C16.9532 27.7929 16.5112 26.9237 15.7721 26.2096C15.033 25.4955 14.1481 25.0596 13.1173 24.9019C12.925 24.875 12.774 24.7846 12.6644 24.6308C12.5548 24.4769 12.5 24.2987 12.5 24.0961C12.5 23.8833 12.5699 23.7051 12.7096 23.5615C12.8494 23.4179 13.0154 23.3596 13.2077 23.3866C14.6269 23.5481 15.8388 24.1311 16.8432 25.1356C17.8477 26.14 18.4326 27.3519 18.598 28.7711C18.6249 28.9737 18.5692 29.1458 18.4307 29.2875C18.2923 29.4291 18.1166 29.5 17.9038 29.5ZM21.7884 29.5C21.5692 29.5 21.3894 29.4243 21.249 29.273C21.1086 29.1217 21.025 28.9333 20.9981 28.7077C20.8032 26.632 19.9724 24.8702 18.5058 23.4221C17.0391 21.974 15.2647 21.1641 13.1827 20.9923C12.9801 20.9718 12.8157 20.8872 12.6894 20.7385C12.5631 20.5897 12.5 20.4141 12.5 20.2115C12.5 19.9987 12.5699 19.8179 12.7096 19.6692C12.8494 19.5205 13.0186 19.4564 13.2173 19.4769C15.7147 19.6487 17.8394 20.6096 19.5913 22.3596C21.3432 24.1096 22.3153 26.2282 22.5076 28.7154C22.5281 28.9346 22.4666 29.1201 22.323 29.2721C22.1794 29.424 22.0012 29.5 21.7884 29.5ZM24.7307 29.5C24.7307 27.7987 24.4125 26.207 23.7759 24.725C23.1394 23.2429 22.2673 21.9481 21.1596 20.8404C20.0519 19.7327 18.7545 18.8606 17.2673 18.224C15.7801 17.5875 14.191 17.2692 12.5 17.2692V16.3077C12.5 15.809 12.6766 15.383 13.0298 15.0298C13.383 14.6766 13.809 14.5 14.3077 14.5H29.6923C30.191 14.5 30.6169 14.6766 30.9701 15.0298C31.3233 15.383 31.5 15.809 31.5 16.3077V27.6923C31.5 28.191 31.3233 28.6169 30.9701 28.9701C30.6169 29.3233 30.191 29.5 29.6923 29.5H24.7307Z" fill="#14B8A6"/>
</g>
</svg>
