<svg width="44" height="44" viewBox="0 0 44 44" fill="none" xmlns="http://www.w3.org/2000/svg">
<rect width="44" height="44" rx="4" fill="#F3E8FF"/>
<mask id="mask0_1308_23817" style="mask-type:alpha" maskUnits="userSpaceOnUse" x="10" y="10" width="24" height="24">
<rect x="10" y="10" width="24" height="24" fill="#D9D9D9"/>
</mask>
<g mask="url(#mask0_1308_23817)">
<path d="M20.0288 30.4038C19.0663 30.4038 18.2424 30.0611 17.5569 29.3757C16.8715 28.6903 16.5288 27.8663 16.5288 26.9038C16.5288 25.9413 16.8715 25.1174 17.5569 24.432C18.2424 23.7466 19.0663 23.4039 20.0288 23.4039C20.4121 23.4039 20.7711 23.4609 21.1057 23.575C21.4403 23.6891 21.748 23.8603 22.0288 24.0885V15.4039C22.0288 14.9068 22.2058 14.4812 22.5598 14.1272C22.9138 13.7732 23.3393 13.5962 23.8365 13.5962H25.8365C26.286 13.5962 26.6708 13.756 26.9909 14.0757C27.311 14.3954 27.4711 14.7797 27.4711 15.2286C27.4711 15.6775 27.311 16.0625 26.9909 16.3836C26.6708 16.7048 26.286 16.8654 25.8365 16.8654H23.5287V26.9038C23.5287 27.8663 23.186 28.6903 22.5006 29.3757C21.8152 30.0611 20.9913 30.4038 20.0288 30.4038Z" fill="#A855F7"/>
</g>
</svg>
