<svg width="44" height="44" viewBox="0 0 44 44" fill="none" xmlns="http://www.w3.org/2000/svg">
<rect width="44" height="44" rx="4" fill="#ECFCCB"/>
<mask id="mask0_1308_23837" style="mask-type:alpha" maskUnits="userSpaceOnUse" x="10" y="10" width="24" height="24">
<rect x="10" y="10" width="24" height="24" fill="#D9D9D9"/>
</mask>
<g mask="url(#mask0_1308_23837)">
<path d="M16.3077 31.5C15.8026 31.5 15.375 31.325 15.025 30.975C14.675 30.625 14.5 30.1974 14.5 29.6923V14.3077C14.5 13.8026 14.675 13.375 15.025 13.025C15.375 12.675 15.8026 12.5 16.3077 12.5H27.6922C28.1974 12.5 28.625 12.675 28.975 13.025C29.325 13.375 29.5 13.8026 29.5 14.3077V29.6923C29.5 30.1974 29.325 30.625 28.975 30.975C28.625 31.325 28.1974 31.5 27.6922 31.5H16.3077ZM21.5 14V19.7692C21.5 19.9499 21.5712 20.083 21.7135 20.1682C21.8558 20.2535 22.009 20.2493 22.1731 20.1557L23.2731 19.5077C23.4269 19.4141 23.5817 19.3673 23.7375 19.3673C23.8933 19.3673 24.0481 19.4141 24.2019 19.5077L25.3019 20.1557C25.466 20.2493 25.6234 20.2535 25.774 20.1682C25.9247 20.083 26 19.9499 26 19.7692V14H21.5Z" fill="#84CC16"/>
</g>
</svg>
